<svg id="Layer_1" viewBox="0 0 512 512" xmlns="http://www.w3.org/2000/svg" data-name="Layer 1"><g id="Layer_1-2" data-name="Layer_1"><g id="_248680864" data-name=" 248680864"><g id="_248681920" data-name=" 248681920"><path fill="white" d="m392.48 435.23h14.62v11.68h-14.62z"/><path fill="white" d="m104.9 435.23h14.62v11.68h-14.62z"/><path fill="white" d="m420.1 435.23v18.18a6.49 6.49 0 0 1 -6.5 6.5h-27.6a6.49 6.49 0 0 1 -6.5-6.5v-18.18h-247v18.18a6.49 6.49 0 0 1 -6.5 6.5h-27.6a6.49 6.49 0 0 1 -6.5-6.5v-18.18h-50.54v20.88a20.91 20.91 0 0 0 20.89 20.89h387.5a20.91 20.91 0 0 0 20.89-20.9v-20.87zm-111.63 27.38h-105a6.5 6.5 0 1 1 0-13h105a6.5 6.5 0 0 1 0 13z"/></g><g id="_248681440" data-name=" 248681440"><path fill="white" d="m445.53 150.32v271.91h-379.06v-271.91a8.65 8.65 0 0 1 8.91-8.32h63.17a12.24 12.24 0 0 1 -.68 15.37h-46.76a6.51 6.51 0 0 0 -6.5 6.5v236.51a6.51 6.51 0 0 0 6.5 6.5h329.78a6.51 6.51 0 0 0 6.5-6.5v-236.54a6.51 6.51 0 0 0 -6.5-6.5h-55.18a12.2 12.2 0 0 1 -.71-15.34h71.59a8.65 8.65 0 0 1 8.94 8.32z"/></g><g id="_248681704" data-name=" 248681704"><path fill="white" d="m414.39 170.34v223.54h-316.78v-223.54h26.24a129.77 129.77 0 0 0 23.37 55.56 6.49 6.49 0 0 0 9.48 1.1 12.31 12.31 0 0 1 17.35 17.36 6.52 6.52 0 0 0 -1.53 5 6.6 6.6 0 0 0 2.61 4.5 129.18 129.18 0 0 0 30.29 16.52c1.05 7.24 2.36 15.3 6.59 20.94v58.87a.15.15 0 0 0 0 .06.08.08 0 0 0 0 .07 6.46 6.46 0 0 0 3.27 5.89l20.66 11.79a6.39 6.39 0 0 0 3.22.86h25.26a6.39 6.39 0 0 0 3.22-.86l20.65-11.79a6.48 6.48 0 0 0 3.27-5.89v-.07a.15.15 0 0 0 0-.06v-58.92c4.23-5.64 5.54-13.7 6.59-20.94a128.92 128.92 0 0 0 30.28-16.52 6.51 6.51 0 0 0 1.09-9.48 12.31 12.31 0 0 1 17.36-17.33 6.51 6.51 0 0 0 5 1.54 6.58 6.58 0 0 0 4.51-2.61 129.77 129.77 0 0 0 23.37-55.56z"/><path fill="white" d="m276.15 168.52-22.26 117h-4.2l-22.26-117 8.59-6 12 8.43a6.5 6.5 0 0 0 7.46 0l12-8.43z"/><path fill="white" d="m328.4 150.41c0 19.58-7.25 31.68-16.42 47-9.82 16.42-20.92 34.94-26.08 67a.68.68 0 0 0 0 .15c-.16 1-.31 2-.46 3-1.36 9.4-2.48 14.06-4.64 16.21l-.31.29c-1.25 1.07-2.84 1.4-5 1.4h-8.36l22.59-118.65a6.49 6.49 0 0 0 -2.66-6.54l-15.76-11.05a6.53 6.53 0 0 0 -7.46 0l-12 8.43-12-8.43a6.53 6.53 0 0 0 -7.46 0l-15.76 11.05a6.49 6.49 0 0 0 -2.66 6.54l22.59 118.65h-8.45c-6.19 0-7.77-2.84-9.94-17.9-4.92-34-16.42-53.22-26.56-70.16-9.18-15.32-16.42-27.42-16.42-47a77.87 77.87 0 0 1 76.61-77.59 77.87 77.87 0 0 1 76.61 77.6z"/><path fill="white" d="m359.63 169.34a24.32 24.32 0 0 0 6.4 3.57 116.64 116.64 0 0 1 -16.73 40.36 25.3 25.3 0 0 0 -33.48 33.49 117.05 117.05 0 0 1 -14.82 8.24c5.33-22.88 14.18-37.65 22.14-50.95 9.4-15.69 18.27-30.5 18.27-53.68a90.6 90.6 0 0 0 -89.53-90.59h-.16a90.6 90.6 0 0 0 -89.53 90.59c0 23.18 8.87 38 18.27 53.68 8 13.3 16.81 28.07 22.14 50.95a117.05 117.05 0 0 1 -14.83-8.28 25.3 25.3 0 0 0 -33.48-33.49 116.64 116.64 0 0 1 -16.73-40.36 25 25 0 0 0 6.35-3.53 7.38 7.38 0 0 0 1.3-1 25.2 25.2 0 0 0 1.32-36.94 6.49 6.49 0 0 0 -1.23-1.17 25.26 25.26 0 0 0 -7.74-4.66 116.56 116.56 0 0 1 16.72-40.37 25.3 25.3 0 0 0 33.48-33.48 116.78 116.78 0 0 1 40.35-16.72 25.29 25.29 0 0 0 47.36 0 116.78 116.78 0 0 1 40.35 16.73 25.3 25.3 0 0 0 33.48 33.47 116.64 116.64 0 0 1 16.7 40.36 25.27 25.27 0 0 0 -7.77 4.68 7.14 7.14 0 0 0 -1.19 1.14 25.17 25.17 0 0 0 1.35 37 6.33 6.33 0 0 0 1.24.96z"/></g><g id="_248681248" data-name=" 248681248"><path fill="white" d="m278.57 298.32v22.33h-53.57v-22.33a30.18 30.18 0 0 0 3.09.15h47.38a30.18 30.18 0 0 0 3.1-.15z"/><path fill="white" d="m278.57 333.64v13.11l-15.88 9.06h-21.8l-15.88-9.06v-13.11z"/></g></g></g></svg>