<svg id="Layer_2" height="512" viewBox="0 0 32 32" width="512" xmlns="http://www.w3.org/2000/svg"><path fill="white" d="m26.125 2h-20.25c-2.14 0-3.875 1.735-3.875 3.875v20.25c0 2.14 1.735 3.875 3.875 3.875h20.25c2.14 0 3.875-1.735 3.875-3.875v-20.25c0-2.14-1.735-3.875-3.875-3.875zm-7.771 5.638c-.195-.195-.195-.512 0-.707s.512-.195.707 0l3.172 3.172c.195.195.195.512 0 .707l-3.184 3.185c-.098.098-.226.146-.354.146s-.256-.049-.354-.146c-.195-.195-.195-.512 0-.707l2.83-2.831zm-.685-2.68c.261.088.401.372.313.633l-3.418 10.142c-.07.208-.265.34-.474.34-.053 0-.107-.008-.16-.026-.262-.088-.402-.372-.314-.633l3.418-10.142c.089-.262.369-.402.635-.314zm-7.903 4.874 3.172-3.172c.195-.195.512-.195.707 0s.195.512 0 .707l-2.819 2.819 2.831 2.831c.195.195.195.512 0 .707-.098.098-.226.146-.354.146s-.256-.049-.354-.146l-3.185-3.185c-.193-.196-.193-.512.002-.707zm17.234 13.585h-22v-4.167h22z"/><g><g><g><path fill="white" d="m9.203 21.833h-1.531c-.276 0-.5-.224-.5-.5s.224-.5.5-.5h1.531c.276 0 .5.224.5.5s-.224.5-.5.5z"/></g><g><g><path fill="white" d="m8.437 22.599c-.276 0-.5-.224-.5-.5v-1.531c0-.276.224-.5.5-.5s.5.224.5.5v1.531c0 .276-.223.5-.5.5z"/></g><g><path fill="white" d="m8.979 22.375c-.128 0-.256-.049-.354-.146l-1.083-1.083c-.195-.195-.195-.512 0-.707s.512-.195.707 0l1.083 1.083c.195.195.195.512 0 .707-.097.097-.225.146-.353.146z"/></g><g><path fill="white" d="m7.896 22.375c-.128 0-.256-.049-.354-.146-.195-.195-.195-.512 0-.707l1.083-1.083c.195-.195.512-.195.707 0s.195.512 0 .707l-1.082 1.082c-.098.098-.226.147-.354.147z"/></g></g></g><g><g><path fill="white" d="m12.984 21.833h-1.531c-.276 0-.5-.224-.5-.5s.224-.5.5-.5h1.531c.276 0 .5.224.5.5s-.223.5-.5.5z"/></g><g><g><path fill="white" d="m12.219 22.599c-.276 0-.5-.224-.5-.5v-1.531c0-.276.224-.5.5-.5s.5.224.5.5v1.531c0 .276-.224.5-.5.5z"/></g><g><path fill="white" d="m12.76 22.375c-.128 0-.256-.049-.354-.146l-1.083-1.083c-.195-.195-.195-.512 0-.707s.512-.195.707 0l1.083 1.083c.195.195.195.512 0 .707-.097.097-.225.146-.353.146z"/></g><g><path fill="white" d="m11.677 22.375c-.128 0-.256-.049-.354-.146-.195-.195-.195-.512 0-.707l1.083-1.083c.195-.195.512-.195.707 0s.195.512 0 .707l-1.083 1.083c-.097.097-.225.146-.353.146z"/></g></g></g><g><g><path fill="white" d="m16.766 21.833h-1.531c-.276 0-.5-.224-.5-.5s.224-.5.5-.5h1.531c.276 0 .5.224.5.5s-.224.5-.5.5z"/></g><g><g><path fill="white" d="m16 22.599c-.276 0-.5-.224-.5-.5v-1.531c0-.276.224-.5.5-.5s.5.224.5.5v1.531c0 .276-.224.5-.5.5z"/></g><g><path fill="white" d="m16.542 22.375c-.128 0-.256-.049-.354-.146l-1.083-1.083c-.195-.195-.195-.512 0-.707s.512-.195.707 0l1.083 1.083c.195.195.196.512 0 .707-.098.097-.226.146-.353.146z"/></g><g><path fill="white" d="m15.458 22.375c-.128 0-.256-.049-.354-.146-.195-.195-.195-.512 0-.707l1.083-1.083c.195-.195.512-.195.707 0 .196.195.195.512 0 .707l-1.083 1.083c-.097.097-.225.146-.353.146z"/></g></g></g><g><g><path fill="white" d="m20.547 21.833h-1.531c-.276 0-.5-.224-.5-.5s.224-.5.5-.5h1.531c.276 0 .5.224.5.5s-.224.5-.5.5z"/></g><g><g><path fill="white" d="m19.781 22.599c-.276 0-.5-.224-.5-.5v-1.531c0-.276.224-.5.5-.5s.5.224.5.5v1.531c0 .276-.223.5-.5.5z"/></g><g><path fill="white" d="m20.322 22.375c-.128 0-.256-.049-.354-.146l-1.082-1.083c-.195-.195-.195-.512 0-.707s.512-.195.707 0l1.082 1.083c.195.195.195.512 0 .707-.097.097-.225.146-.353.146z"/></g><g><path fill="white" d="m19.24 22.375c-.128 0-.256-.049-.354-.146-.195-.195-.195-.512 0-.707l1.082-1.083c.195-.195.512-.195.707 0s.195.512 0 .707l-1.082 1.083c-.097.097-.225.146-.353.146z"/></g></g></g><g><g><path fill="white" d="m24.328 21.833h-1.531c-.276 0-.5-.224-.5-.5s.224-.5.5-.5h1.531c.276 0 .5.224.5.5s-.224.5-.5.5z"/></g><g><g><path fill="white" d="m23.562 22.599c-.276 0-.5-.224-.5-.5v-1.531c0-.276.224-.5.5-.5s.5.224.5.5v1.531c0 .276-.223.5-.5.5z"/></g><g><path fill="white" d="m24.104 22.375c-.128 0-.256-.049-.354-.146l-1.082-1.083c-.195-.195-.195-.512 0-.707s.512-.195.707 0l1.082 1.083c.195.195.195.512 0 .707-.098.097-.226.146-.353.146z"/></g><g><path fill="white" d="m23.021 22.375c-.128 0-.256-.049-.354-.146-.195-.195-.195-.512 0-.707l1.082-1.083c.195-.195.512-.195.707 0s.195.512 0 .707l-1.082 1.083c-.097.097-.225.146-.353.146z"/></g></g></g></g></svg>