<svg clip-rule="evenodd" fill-rule="evenodd" height="512" image-rendering="optimizeQuality" shape-rendering="geometricPrecision" text-rendering="geometricPrecision" viewBox="0 0 1.70666 1.70666" width="512" xmlns="http://www.w3.org/2000/svg"><g id="Layer_x0020_1"><g id="_270280648"><g><path fill="white" id="_270280888" d="m.765827.363417v-.158846h-.0246929c-.00741732 0-.0142087-.00409843-.0176811-.0106496-.0034685-.00655118-.00302756-.0144724.00115748-.0205984l.112185-.164811c.00744094-.0109449.0256102-.0109449.0330669 0l.110579.162449c.0033189.00357087.00535827.0083622.00535827.013626 0 .0110394-.00896063.02-.02.02-.00006693.00001575-.00017717 0-.00027559 0h-.0246772v.158835c-.0284213-.00506693-.0576693-.0077126-.0875236-.0077126-.0298465 0-.0590866.00264567-.0874961.00770866z"/><path fill="white" id="_270281416" d="m1.13752.445126.112504-.11248-.0174685-.0174606c-.00523622-.00523228-.00715354-.0129409-.00496063-.0200236.00217717-.00708268.00809843-.012374.015374-.0137638l.195882-.0372047c.00648819-.00122441.0131969.00083465.017874.0055.00467717.00466535.00673228.0113583.0055.017874l-.0372047.195882c-.0013937.00727559-.00668504.0132047-.0137638.015374-.00709843.00219291-.0147756.00027953-.0200276-.00497244l-.0174567-.0174567-.112496.112488c-.0336535-.0481535-.0755984-.0901063-.123756-.123756z"/><path fill="white" id="_270280792" d="m1.52181.985264c-.00319685 0-.00641339-.00077559-.00934646-.00233465-.00655906-.00346063-.0106693-.0102638-.0106693-.0176693v-.0246811l-.158819.00000394c.00506299-.0284213.00771654-.0576693.00771654-.0875236 0-.0298465-.00264961-.0590827-.0077126-.0874961h.158815v-.0246929c0-.00741732.00411024-.0142087.0106693-.0176811.00652756-.0034685.0144685-.00302756.0205945.00115748l.164815.112205c.0054685.00372047.00874803.00991339.00874803.0165276 0 .00661417-.00327559.0128031-.00874803.0165315l-.164815.112189c-.00338976.00229528-.00730315.00346457-.011248.00346457z"/><path fill="white" id="_270280768" d="m1.44256 1.46228c-.00123622 0-.0025-.00012598-.00374016-.00034646l-.195878-.0372087c-.00727559-.00138976-.0131969-.0066811-.015378-.0137598-.00217717-.00708268-.00027559-.0147795.00496063-.0200276l.0174724-.0174567-.112488-.112484c.0481535-.0336457.0900906-.0755906.123744-.12374l.11248.11248.0174567-.0174685c.00525197-.00522441.0129449-.00715354.0200276-.00496063.00707874.00217717.0123858.00809843.0137638.015374l.0365945.192657c.00080315.00215354.00123622.0045.00123622.00694488 0 .0110394-.00896063.02-.02.02-.00005906-.00001968-.00015748-.00000394-.00025197-.00000394z"/><path fill="white" id="_270280936" d="m.853323 1.70635c-.00662598 0-.0128031-.00327559-.0165276-.00874803l-.112193-.164811c-.00416535-.00612598-.0046063-.0140709-.00115354-.0205984.0034685-.00655512.0102638-.0106654.0176811-.0106654h.0246969v-.158819c.0284094.00506299.0576496.0077126.0874961.0077126s.0590827-.00264961.0874961-.0077126v.158819h.0246772c.00740157 0 .0142087.00411024.0176693.0106654.0034685.00653937.00302756.0144724-.0011378.0205984l-.112193.164811c-.00370866.00547244-.00988583.00874803-.0165118.00874803z"/><path fill="white" id="_270280696" d="m.264098 1.46228c-.00524803 0-.0103622-.00207087-.0141339-.00586614-.00468504-.0046811-.00673622-.011374-.00550394-.0178701l.0372087-.195882c.00138976-.00727559.00666535-.0131969.0137638-.015374.00706693-.0021811.0147913-.00026378.0200236.00496063l.0174567.0174685.112469-.112476c.0336496.0481614.0755945.0901024.123748.123756l-.112469.112469.0174606.0174567c.00523228.00524803.00715354.0129606.0049685.0200276-.00217717.00707874-.00809843.0123858-.015374.0137598l-.195878.0372087c-.00125591.00023622-.00250394.00036221-.00374016.00036221z"/><path fill="white" id="_270281128" d="m.184839.985264c-.00394488 0-.00787402-.00116535-.0112638-.0034685l-.164799-.112209c-.0054685-.00373622-.00873228-.00991339-.00873228-.0165276 0-.00661417.00327559-.0128031.00873228-.0165315l.164815-.112205c.00612205-.00417717.0140669-.0046063.0206063-.00115354.00655512.0034685.0106496.0102638.0106496.0176772l.00000787.0247165h.158827c-.00506299.0284094-.00770866.0576496-.00770866.0874961 0 .0298504.00264567.0590945.00770866.0875118l-.158843-.00000394v.0246811c0 .00740157-.00410236.0142087-.0106535.0176693-.00293307.00157087-.00614173.00234646-.00934646.00234646z"/><path fill="white" id="_270280072" d="m.445394.568862-.112496-.11248-.0174567.0174606c-.00523228.00524803-.0129724.00716535-.0200236.0049685-.00708268-.00217717-.012374-.00809843-.0137638-.015374l-.0372087-.195882c-.00123228-.00649606.00083465-.0131969.00550394-.017874.00466535-.00469291.011374-.00676378.017874-.0055l.195878.0372047c.00727559.0013937.0132087.00668504.015374.0137638.0021811.00708268.00027953.0147913-.0049685.0200276l-.0174606.0174567.112484.112492c-.0481457.0336496-.0900906.0755827-.123736.123736z"/></g><path fill="white" id="_270280456" d="m.853323 1.31043c-.252185 0-.457354-.205169-.457354-.45737s.205169-.457354.457354-.457354.45737.205169.45737.457354-.205185.45737-.45737.45737zm0-.123858c-.183894 0-.333512-.149602-.333512-.333512 0-.183909.149618-.333512.333512-.333512s.333528.149618.333528.333512-.149634.333512-.333528.333512z"/><path fill="white" id="_270280024" d="m.606579 1.01184c.0286299-.0514134.0835433-.0849882.14398-.0849882l.0454921-.00000394c.0110394 0 .0199961.0089685.0199961.02 0 .0205394.0167244.0372717.0372756.0372717s.0372638-.0167244.0372638-.0372717c0-.0110394.0089685-.02.02-.02h.0454843c.0604488 0 .115366.0335906.143988.0850079-.0523189.0809843-.143382.13472-.246736.13472-.103366 0-.194433-.0537362-.246744-.134736zm.273173.0712126h-.0528583c-.0110394 0-.02-.0089685-.02-.02 0-.0110276.00896063-.0199961.02-.0199961h.0528583c.0110394 0 .02.0089685.02.0199961 0 .0110315-.00896063.02-.02.02z"/><path fill="white" id="_270280672" d="m.853323.905567c-.0740118 0-.134217-.0602205-.134217-.134232 0-.0023189.00007087-.00459843.0001811-.00688583.00025984-.0053937.00269291-.0104331.00672441-.0140157.00405512-.00358661.00935827-.00533465.0147323-.00496063.069248.00527559.11911-.0455945.119583-.0460827.00434646-.00451575.0105394-.00672441.0168307-.00594094.00623622.00077559.011748.00442913.014878.0098622.0201496.0350118.0494843.0402362.0651614.0402362.00366929 0 .00609843-.00029528.00669291-.00038976.00554331-.00087795.0112756.00059843.0156535.00406693.00437402.00347244.00722441.00861024.00762598.0141929.00023622.00327559.00034646.00658268.00034646.00990157.00001968.0740276-.0601811.134248-.134193.134248zm-.0931339-.11998c.00688583.0452205.0460236.0799685.0931496.0799685.0479961 0 .0877008-.0360669.0934803-.0825118-.0195-.00189764-.050563-.0100551-.0758425-.0402047-.0215157.0163583-.0607756.0400118-.110787.042748z"/><path fill="white" id="_270280288" d="m.750618.785862c-.0152638 0-.0305984-.00203937-.0455827-.00608268-.00733465-.00198425-.0129173-.00794094-.0144134-.0153898-.00070866-.00355512-.0169449-.0876772.024-.137622.019248-.0234843.0470512-.0353898.0826024-.0353898.00357087 0 .00725197.00012598.0110709.00037402.00105512.00002756.0352047.0014685.0618858.0245984.00707087-.0016811.0164331-.00323622.0268898-.00323622.0249252 0 .046315.00888976.0618583.0256969.0232913.0251772.0327913.0674409.028252.12563-.00070866.00909843-.0074685.0165591-.0164567.0181378-.00091732.00016535-.00590157.0009685-.0135.0009685-.0169291 0-.0557874-.00438583-.0862598-.0407323-.0228504.0174134-.0657756.0430472-.120346.0430472z"/></g></g></svg>