<svg id="Layer_1" viewBox="0 0 64 64" xmlns="http://www.w3.org/2000/svg" data-name="Layer 1"><path fill="white" d="m61 52.52h-4.23v-28.35a3.126 3.126 0 0 0 -3.13-3.12h-19.46a9.2 9.2 0 0 0 -3.75-13.75 1 1 0 0 0 -1.41.92v8.39h-4.67v-8.39a1 1 0 0 0 -1.41-.92 9.2 9.2 0 0 0 -3.75 13.75h-8.83a3.126 3.126 0 0 0 -3.13 3.12v28.35h-4.23a1 1 0 0 0 -1 1 8.326 8.326 0 0 0 8.32 8.32h43.36a8.326 8.326 0 0 0 8.32-8.32 1 1 0 0 0 -1-1zm-19-14.73a1 1 0 0 1 1-1h3a1 1 0 0 1 0 2h-3a1 1 0 0 1 -1-1zm9.08 6.78v3.48h-10.56v-3.48zm1-5.78h-3.08a1 1 0 0 1 0-2h3.08a1 1 0 0 1 0 2zm0-4.9h-10a1 1 0 0 1 0-2h10a1 1 0 0 1 0 2zm0-5.04h-5.55a1 1 0 0 1 0-2h5.55a1 1 0 0 1 0 2zm-16.41-2.58a1.535 1.535 0 1 1 0 3.07h-3.13a1 1 0 0 0 0 2h2.08a1.44 1.44 0 1 1 0 2.88h-2.85a1 1 0 1 0 0 2h1.79a1.465 1.465 0 1 1 0 2.93h-2.82a1 1 0 0 0 0 2h1.77a1.375 1.375 0 0 1 0 2.75h-11.8a3.571 3.571 0 0 1 -2.59-1.12l-.56-.6v-13.56l1.75-1.5a3.561 3.561 0 0 1 2.31-.85zm-20.11 1.59v14.72a1.32 1.32 0 0 1 -2.64 0v-14.72a1.32 1.32 0 0 1 2.64 0zm7.63 21.2a4.725 4.725 0 0 1 -1.28-3.16h9.57a4.808 4.808 0 0 1 -4.79 4.68 4.736 4.736 0 0 1 -3.5-1.52zm-.84-39.1v7.65a1 1 0 0 0 1 1h6.67a1 1 0 0 0 1-1v-7.65a7.209 7.209 0 0 1 -.47 11.84.967.967 0 0 0 -.46.9l.09 1.57h-6.99l.09-1.56a.983.983 0 0 0 -.46-.91 7.209 7.209 0 0 1 -.47-11.84zm31.33 49.88h-43.36a6.333 6.333 0 0 1 -6.24-5.32h55.84a6.333 6.333 0 0 1 -6.24 5.32z"/><path fill="white" d="m11.02 58.18a1.009 1.009 0 0 0 .379-.08.857.857 0 0 0 .321-.21 1 1 0 0 0 .3-.71.978.978 0 0 0 -.081-.38.991.991 0 0 0 -.219-.33 1.034 1.034 0 0 0 -1.41 0 1.175 1.175 0 0 0 -.22.33 1 1 0 0 0 .93 1.38z"/><path fill="white" d="m14.609 58.18a1.067 1.067 0 0 0 .391-.08.857.857 0 0 0 .319-.21 1.172 1.172 0 0 0 .221-.33.988.988 0 0 0 .069-.38 1 1 0 0 0 -.29-.71.984.984 0 0 0 -.319-.21.972.972 0 0 0 -.58-.06.592.592 0 0 0 -.191.06.551.551 0 0 0 -.169.09.983.983 0 0 0 -.15.12 1.033 1.033 0 0 0 -.3.71 1 1 0 0 0 .3.71.966.966 0 0 0 .699.29z"/><path fill="white" d="m18.21 58.18a.838.838 0 0 0 .38-.08.981.981 0 0 0 .54-1.3 1.141 1.141 0 0 0 -.21-.33 1.047 1.047 0 0 0 -1.42 0 1.141 1.141 0 0 0 -.21.33.99.99 0 0 0 .92 1.38z"/></svg>