<svg id="Layer_2" height="512" viewBox="0 0 512 512" width="512" xmlns="http://www.w3.org/2000/svg" data-name="Layer 2"><g id="Icon"><path id="_122" d="m362 0h-212c-82.84 0-150 67.16-150 150v212c0 82.84 67.16 150 150 150h212c82.84 0 150-67.16 150-150v-212c0-82.84-67.16-150-150-150zm-28.22 273.68-120.21 120.21c-9.76 9.76-25.59 9.76-35.36 0-9.76-9.76-9.76-25.59 0-35.36l102.53-102.53-102.53-102.53c-9.76-9.76-9.76-25.59 0-35.36 9.76-9.76 25.59-9.76 35.36 0l120.21 120.21c9.76 9.76 9.76 25.59 0 35.36z" data-name="122"/></g></svg>