<svg id="Layer_1" height="512" viewBox="0 0 512 512" width="512" xmlns="http://www.w3.org/2000/svg" data-name="Layer 1"><path fill="white" d="m464.765.005h-417.714a35.827 35.827 0 0 0 -35.442 35.795v316.356a35.825 35.825 0 0 0 35.8 35.8h100.241a137.483 137.483 0 0 0 11.463 13.044 135.82 135.82 0 0 0 182.977 8.109l8.161 8.165-6.746 6.783a11.941 11.941 0 0 0 0 16.968l61.134 61.166a33.59 33.59 0 0 0 47.5-47.506l-61.133-61.165a12.009 12.009 0 0 0 -16.981 0l-6.793 6.779-8.161-8.161q1.77-2.065 3.4-4.184h101.934a35.825 35.825 0 0 0 35.8-35.8v-316.354a35.827 35.827 0 0 0 -35.44-35.795zm-.36 363.949h-87.078a135.752 135.752 0 0 0 -26.369-154.8c-52.879-52.888-138.919-52.888-191.845 0a135.822 135.822 0 0 0 -26.321 154.8h-85.38a11.845 11.845 0 0 1 -11.84-11.8v-218.1h440.672v218.1a11.844 11.844 0 0 1 -11.839 11.8zm-70.993 65.921-13.585 13.562-10.9-10.9 13.585-13.566 10.9 10.9zm44.577 48.563a9.6 9.6 0 0 1 -16.369 6.778l-24.812-24.807 13.586-13.562 24.811 24.808a9.526 9.526 0 0 1 2.784 6.783zm-148.731-201.949-2.594.307a12 12 0 1 1 -2.831-23.836l30.52-3.595a12.037 12.037 0 0 1 13.35 10.52l3.585 30.519a12 12 0 0 1 -10.519 13.322 13.18 13.18 0 0 1 -1.415.084 11.989 11.989 0 0 1 -11.888-10.6l-.141-.938-30.473 36.038a12 12 0 0 1 -14.434 3.043l-29.907-14.613-32.5 39.723a12 12 0 1 1 -18.585-15.189l38.492-47.082a12.04 12.04 0 0 1 14.574-3.192l30.1 14.68 24.67-29.194zm-199.486-209.459a12.009 12.009 0 0 1 -12.029 12h-.66a12 12 0 1 1 0-24h.66a12.01 12.01 0 0 1 12.029 12zm38.35 0a12.009 12.009 0 0 1 -12.029 12h-.66a12 12 0 1 1 0-24h.66a12.01 12.01 0 0 1 12.029 12zm38.35 0a12.009 12.009 0 0 1 -12.029 12h-.66a12 12 0 1 1 0-24h.66a12.01 12.01 0 0 1 12.029 12zm121.371 0a11.969 11.969 0 0 1 11.982-12h134.909a12 12 0 1 1 0 24h-134.909a11.969 11.969 0 0 1 -11.982-12z" fill-rule="evenodd"/></svg>